<svg xmlns="http://www.w3.org/2000/svg" viewBox="0 0 595.28 595.28">
  <style>
    .st0{fill:#fff;stroke:#fff;stroke-width:10;stroke-miterlimit:10}.st9{fill:#3c6db5}.st10{fill:#d1d3d4}.st11{fill:#808285}
  </style>
  <path d="M107.97 500.2c-4.95-4.93-8.03-8.77-9.25-11.51-1.15-2.69-1.27-5.86-.2-9.59.43-1.47.94-2.9 1.71-4.25.82-1.43 2.8-4.67 6.03-9.69l3.14-4.87c.56-.87 1.43-2.06 2.61-3.57a57.01 57.01 0 002.14-2.84 20.1 20.1 0 014.76-3.41l3.15-1.06a33.51 33.51 0 013.99-1.24l5.3-1.21 9.39-2.28 4.98 3.93c3.25 2.61 5.15 3.83 5.62 3.73.86-.38 2.36.8 2.37 1.42.01.31-1.61 1.54-4.67 3.58-3.06 2.04-4.92 3.01-5.47 3.06-.48.1-2.13-1.17-5.61-4.23-4.01-3.51-4.94-4.31-5.77-4.13-2.44.28-9.13 8.42-14.92 18.06-2.64 4.58-4.34 7.7-5.03 9.41-.69 1.71-.91 3.33-.55 4.69.49 2.27 4.07 7.25 7.37 9.79 2.07 1.74 2.19 1.72 4.31 1.13 1.89-.53 2.34-.44 2.66.18a2.1 2.1 0 010 1.75c-.16.41-2.06 1.76-5.57 4.02-3.47 2.19-5.7 3.42-6.54 3.6-.05.07-.05.07-.17.1-.52.18-.98.09-1.37-.27-.32-.31-1.56-1.41-3.49-3.37l-.92-.93zM129.94 509.38c.04-1.94.97-5.12 2.83-9.68s3.13-7.22 3.96-8.1c1.91-2.39 5.69-3.19 17.02-4.17l10.44-.88.98-2.4c1.28-3.12 1.32-5.53.01-6.44-1.56-1.2-3.44-1.4-10.02-1.29-3.84.02-6.14-.07-6.79-.06-.66.01-1.06-.15-1.23-.41-.19-.45.07-1.09.14-2.18.48-1.39.72-1.76 2.21-1.99 2.36-.53 11.82-.59 15.96-.21 5.74.57 9.57 1.94 11.47 3.93.08.03.16.07.2.18 1.31 1.38 1.81 2.89 1.37 4.67-.45 1.78-2.51 7.29-6.22 16.61l-.55 1.36c-4.79 11.96-7.25 18.24-7.36 18.95-.22 1.22.98 1.71 3.49 1.52 2.51-.19 3.39.17 3.02 1.98.06 1.24-.51 1.48-2.02 1.98-1.43.54-4.04.97-7.7 1.25-3.58.31-5.91.3-7.02.03-1.7-.42-2.03-.74-2.71-2.04-.73-1.42-.65-1.85.14-4.24.57-1.63.87-2.82.79-2.85-.08-.03-2.38.34-4.94.88-8.14 1.63-12.23 1.36-14.94-1.15-1.71-1.55-2.58-3.31-2.53-5.25zm24.74.47l3.66-8.97c2.78-6.81 3.47-8.95 3.14-9.08-.56-.23-2.76-.1-6.41.38-3.65.47-5.67.86-6.3 1.26-.63.4-1.21.91-1.65 1.76-.41.77-1.19 2.69-2.43 5.73-4.05 9.93-3.59 10.86 5.04 9.62l4.95-.7zM189.3 508.55c1.63-10.33 2.31-16.09 2.05-17.26-.14-.81-.79-1.17-1.85-1.06-.1.07-.27.05-.45.11l-.71.07c-2.78.46-3.46-.26-3.15-2.31.19-1.28.49-1.5 2.21-1.94 2.9-.7 6.13-1.27 9.81-1.86 3.67-.59 5.73-.89 6.14-.74 1.11.17 1.07.42.74 3.87l-.45 3.6 6.6-2.07c5.13-1.59 8.77-2.54 10.91-2.83 2.14-.29 3.75.03 4.94.91 1.35.9 1.81 2.54 1.85 5.17l-.02 1.92 6.14-1.88c5.04-1.52 8.57-2.39 10.7-2.6 2.14-.29 3.84.05 5.11.94 1.02.76 1.6 1.55 1.72 2.53.27 1.7-.43 8.15-2.04 19.54l-.32 2.14c-.07.51-.19 1.28-.26 2.32-1.52 10.79-2.23 16.71-1.96 17.8.17.64.74.9 1.74.61l.28-.13c.1-.07.27-.05.35-.03 2.56-.76 3.48-.44 3.14 1.78l-.26 1.71-5.48 2.16c-5.2 2.02-5.46 2.07-8.31 1.82-3.52-.44-4.4-1.01-4.41-3.81-.07-1.32.82-8.44 2.75-21.36 1.4-9.41 2.16-15.06 2.34-16.87.19-1.89.19-3.03-.18-3.52-.51-.69-.98-1.02-1.24-1.06-.43-.06-2.81.63-5.63 1.43l-5.13 1.59-2.44 16.33c-1.57 10.52-2.2 15.93-1.9 16.24l.24.12c3.83-.48 5.16-.63 5.38-.33.15.2.23.82.25 1.87l-.05 1.48-5.28 1.4-8.32 1.9c-2.97.61-4.68.88-5.11.81-.08-.01.15-2.16.69-6.36.55-4.29 1.32-9.42 2.21-15.41 2.11-14.11 3.19-21.99 2.94-22.64-.56-1.48-3.19-1.44-8.07.19l-4.71 1.66-2.44 16.33c-.68 4.53-1.25 8.38-1.65 11.64-.39 3.18-.54 4.81-.46 4.83.26.03 1.07-.11 2.51-.42 2.87-.53 4.03-.1 4.13 1.58.11.98-.05 1.48-.45 1.86-.29.22-3.35.81-9.1 1.79-5.65.99-8.79 1.48-9.39 1.4-.25-.04-.32-1.36-.02-3.94s1.2-8.65 2.64-18.31l.73-4.71zM262.34 536.52a18.36 18.36 0 01-.99-4.72c-.17-1.81-.36-6.13-.67-12.78l-.34-7.43c-.14-3.2-.16-7.44.04-8.57.06-.61.29-1.31.6-2.11.61-1.76 1.03-2.04 2.36-3.39 3.96-4.33 9.86-7.72 14.75-8.63 3.86-.7 6.17.58 8.44 4.81a11.82 11.82 0 002.56 3.09c.89.56 1.35 1.06 1.12 1.85-.06.52-.55 1.15-1.64 1.89l-7.58 4.5-9.2 5.26.47 10.36c.24 5.35.48 8.81.73 10.27a7.51 7.51 0 001.71 3.47c2.26 2.15 5.68 1.3 10.44-2.55 3.26-2.66 4.45-2.97 5.56-1.38 1.11 1.68.38 2.58-6.83 7.75-6.03 4.43-10.56 5.58-15.47 4.34-2.87-.72-4.87-2.7-6.06-6.03zm12.29-32.57c1.43-.84 2.78-1.77 2.85-2.12.07-.43-.15-1.38-.74-2.91a8.7 8.7 0 00-1.53-3.13c-.99-.91-2.64-.92-3.36.41-.57.8-.6 2.02-.46 5.13.12 2.68.27 4.06.44 4.05l2.8-1.43zM303.72 537.76c-.52-.62-.77-1.12-1.44-5.3l-1.24-7.68c-.52-3.07-1.17-7.78-2.15-14.19-2.86-20.55-3.99-26.16-4.48-26.53-.39-.29-1.64-.47-2.95-.46-2.15.21-2.24.22-2.67-1.03-.1-.69-.12-1.47.1-1.76.29-.39 2.86-1.45 7.75-3.26 6.5-2.21 7.47-2.79 8.09-2.09.29.22.8 1.98 1.34 5.23.54 3.24 1.75 10.67 3.46 22.31 2.6 18.06 4.16 27.36 4.49 27.83.35.65.79.68 1.78.28.92-.3 1.85-.52 2.86-.75 1.36-.28 1.47-.12 1.87.87.2.85.12 1.47-.16 1.95-.37.49-2.04 1.68-5.19 3.51-3.16 1.75-5.19 2.82-6.3 3.06-1.34.36-2.4.33-3.15-.09a7.51 7.51 0 01-2.01-1.9zM324.18 527.23c-.69-1.08-2.05-5.74-4.11-13.87a210.2 210.2 0 01-2.43-10.44c-.31-1.7-.43-3.01-.27-3.84.65-5.21 4.14-9.66 12.38-15.84l5.22-3.88 3.21.85c4.62 1.15 9.31 3.78 11.14 5.93l1.6 1.94 3.07 13.22 3.06 13.14-.71 2.65a18.22 18.22 0 01-3.07 5.86 49.77 49.77 0 01-7.07 6.62c-3.97 3.14-6.08 4.78-6.33 4.84-.34.08-1.82-.2-4.47-.91-4.87-1.09-9.67-3.8-11.22-6.27zm21.59-9.46a248.6 248.6 0 00-2.15-9.62l-.12-.5c-1.8-7.75-3.11-12.24-3.83-13.4-.55-.85-1.65-1.75-3.35-2.59l-.12-.15c-3.22-1.65-6.3-2.26-7.17-1.44a3.3 3.3 0 00-1 2.19c-.05 1.7.51 4.85 2.68 14.2l.25 1.09c.49 2.1.84 3.62.97 4.57.21.93.47 2.02.87 3.35.88 2.63.83 2.83 1.63 4.33.96 1.46 1.03 1.36 2.29 2.22 1.33.76 1.79.83 3.73 1.53l.5.24c3.19 1.12 4.12.91 5.07-1.09.33-.9.23-2.47-.25-4.93zM373.97 524.97c-1.42-.17-2.45-1.11-3.26-2.76-.81-1.65-2.87-7.43-6.19-17.35l-.37-1.15c-4.41-13.02-6.96-19.74-7.73-20.13a2.93 2.93 0 00-2.35-.23c-1.64.53-3.12.19-3.44-.79-.19-.58.67-2.4 2.66-5.5 1.49-2.39 3.96-7.11 5.3-10 1.67-3.54 2.72-5.34 3.21-5.5.66-.21.9.26 2.58 5.43l1.87 5.76 4.28-1.39 4.36-1.42.29 1.73c.1 1.15.31 2.08.55 2.82l.38 1.15-4.03 1.31-4.03 1.31 5.85 18.01c2.68 8.22 3.99 11.98 4.92 14.86 1.02 2.85 1.37 3.37 1.78 3.51.71.22 1.18-.02 3.08-2 2.45-2.52 3.41-2.65 4.38-1.06.57.91.54 1.37-.43 2.87-.75 1.33-2.4 3.23-4.91 5.6-2.51 2.36-4.29 3.85-5.31 4.36-1.21.48-2.3.75-3.34.63l-.1-.07z" class="st0"/>
  <path d="M571.02 523.87c-3.24-5.85-6.55-11.68-9.8-17.53-7.32-13.17-14.67-26.33-21.93-39.53a8941.02 8941.02 0 01-33.18-60.78 15.16 15.16 0 00-7.27-6.85c-19.23-9.21-38.83-17.62-57.85-27.27-1.7-.86-2.02-1.47-1.06-3.16a241 241 0 007.73-14.44 225.44 225.44 0 0016.55-47.82c2.73-12 4.22-24.22 4.54-36.49.22-8.42.02-16.87-.86-25.31-1.11-10.56-2.49-21.01-5.01-31.36-6.18-25.28-16.43-48.7-31.29-70.04a215.88 215.88 0 00-43.73-46.15c-13.88-10.97-29.14-19.53-45.16-26.84-9.23-4.21-18.93-7.13-28.66-9.96-18.48-5.36-37.41-7.21-56.56-7.38-4.25-.04-8.51.47-12.75.68a180.18 180.18 0 00-34.28 5.2c-29.18 7.14-55.7 19.77-79.45 38.19a213.54 213.54 0 00-39.78 40.47 205.57 205.57 0 00-33.58 67.87 208 208 0 00-7.93 52.21 201.3 201.3 0 002.84 38.96c2.8 16.32 7.21 32.1 13.79 47.32 2.75 6.35 6.04 12.44 8.99 18.88-.56.01-.93.1-1.26.02-9.46-2.53-18.42-6.17-25.65-12.97-6.79-6.39-10.82-14.44-12.91-23.5-.32-1.39-.12-3.6-1.73-3.87-1.52-.25-2.16 1.8-2.93 3.03-9.13 14.55-10.06 38.39-1.63 50.3 21.73 23.86 31.23 15.7 39.13 25.48 0 0-13.07 11.97 34 13.5 8.28-1.73-2.41 3.31 19.55 9.35 2.49-.6 4.19-.04 5.98 1.45A188.2 188.2 0 00143.47 437c19.38 12.94 40.45 22.05 62.93 28.06 17.43 4.67 35.19 6.72 53.19 6.82 5.32.03 10.64-.31 15.96-.71a210.2 210.2 0 0023.15-3c19.06-3.59 37.24-9.97 54.61-18.61 5.03-2.5 9.93-5.24 15.18-8.02l14.92-8.83 11.87 13.81c6.76 7.62 13.68 15.1 20.49 22.68 7.23 8.03 14.33 16.18 21.65 24.13 2.21 2.4 3.99 5.22 7.79 6.04 13.16 2.83 26.35 5.53 39.47 8.56 19.98 4.61 40.06 8.77 60.11 13.1 8.17 1.77 16.22 4.02 24.48 5.39.78.13 1.71.92 2.37-.02.66-.94-.2-1.76-.62-2.53z" class="st0"/>
  <linearGradient id="SVGID_1_" x1="23.3994" x2="571.8762" y1="289.1756" y2="289.1756" gradientUnits="userSpaceOnUse">
    <stop offset="0"/>
    <stop offset="1" stop-color="#171717"/>
  </linearGradient>
  <path fill="url(#SVGID_1_)" d="M571.02 523.13c-3.24-5.85-6.55-11.68-9.8-17.53-7.32-13.17-14.67-26.33-21.93-39.53a8941.02 8941.02 0 01-33.18-60.78 15.16 15.16 0 00-7.27-6.85c-19.23-9.21-38.83-17.62-57.85-27.27-1.7-.86-2.02-1.47-1.06-3.16a241 241 0 007.73-14.44 225.44 225.44 0 0016.55-47.82c2.73-12 4.22-24.22 4.54-36.49.22-8.42.02-16.87-.86-25.31-1.11-10.56-2.49-21.01-5.01-31.36-6.18-25.28-16.43-48.7-31.29-70.04a215.88 215.88 0 00-43.73-46.15c-13.88-10.97-29.14-19.53-45.16-26.84-9.23-4.21-18.93-7.13-28.66-9.96-18.48-5.36-37.41-7.21-56.56-7.38-4.25-.04-8.51.47-12.75.68a180.18 180.18 0 00-34.28 5.2c-29.18 7.14-55.7 19.77-79.45 38.19a213.54 213.54 0 00-39.78 40.47 205.57 205.57 0 00-33.58 67.87 208 208 0 00-7.93 52.21 201.3 201.3 0 002.84 38.96c2.8 16.32 7.21 32.1 13.79 47.32 2.75 6.35 6.04 12.44 8.99 18.88-.56.01-.93.1-1.26.02-9.46-2.53-18.42-6.17-25.65-12.97-6.79-6.39-10.82-14.44-12.91-23.5-.32-1.39-.12-3.6-1.73-3.87-1.52-.25-2.16 1.8-2.93 3.03-9.13 14.55-10.06 38.39-1.63 50.3 21.73 23.86 31.23 15.7 39.13 25.48 0 0-13.07 11.97 34 13.5 8.28-1.73-2.41 3.31 19.55 9.35 2.49-.6 4.19-.04 5.98 1.45a188.2 188.2 0 0015.59 11.47c19.38 12.94 40.45 22.05 62.93 28.06 17.43 4.67 35.19 6.72 53.19 6.82 5.32.03 10.64-.31 15.96-.71a210.2 210.2 0 0023.15-3c19.06-3.59 37.24-9.97 54.61-18.61 5.03-2.5 9.93-5.24 15.18-8.02l14.92-8.83 11.87 13.81c6.76 7.62 13.68 15.1 20.49 22.68 7.23 8.03 14.33 16.18 21.65 24.13 2.21 2.4 3.99 5.22 7.79 6.04 13.16 2.83 26.35 5.53 39.47 8.56 19.98 4.61 40.06 8.77 60.11 13.1 8.17 1.77 16.22 4.02 24.48 5.39.78.13 1.71.92 2.37-.02.66-.94-.2-1.76-.62-2.53zm-99.24-125.36c6.81 3.76 13.64 7.48 20.44 11.27a6.55 6.55 0 012.87 2.88c5.05 10.43 9.97 20.91 12.67 32.26 2.29 9.64 4.93 19.2 6.38 29.03.45 3.07 1.37 6.06 2.08 9.09l-.5.3-198.91-153.96c4.21-2.93 8.27-5.72 12.26-8.58.73-.52 1.21-.79 2.1-.29a5316.32 5316.32 0 0032.95 18.42c13.65 7.55 27.36 15 41.01 22.55 10.17 5.63 20.28 11.37 30.44 17.01 12.05 6.71 24.14 13.36 36.21 20.02zM151.49 258.71c6.63-15.93 16.63-29.17 30.85-39.5-5.65-.54-10.63.91-15.55 2.68-.82.3-1.66.54-2.49.81-.53.51-1.07 1.02-1.93.93.17-.94 1.08-.84 1.53-1.31 5.82-6.97 13.58-8.3 22.03-7.51a146 146 0 0113.02 1.71c-21.04 8.29-35.62 23.69-47.46 42.19zm14.2-7.42c-.25.32-.49.64-.66.84-.57.14-.63-.15-.5-.35.17-.27.46-.48.74-.66.07-.05.27.11.42.17zm-36.82 47.14c.61 6.77.87 13.62.23 20.47-.6 6.39-2.9 12.05-6.12 17.46-.28.46-.46 1.04-1.05 1.02-.8-.03-.43-.81-.63-1.24a167.25 167.25 0 01-12.08-38.79 264.43 264.43 0 01-2.65-19.23c-.75-6.92-.94-13.84-.74-20.72.33-11.43 2.15-22.71 4.59-33.9 2-9.16 4.74-18.07 8.36-26.7a190.51 190.51 0 0120.31-36.7 168.15 168.15 0 0118.15-21.71c2.19-2.18 4.73-3.97 7.05-6.97.13 6.15-.02 11.75 1.82 17.14 1.83 5.37 4.74 9.7 10.54 11.74.62.26.69-.3.47-.47-3.28-2.62-3.89-4.8-4.44-7.23l3.24.92c-3.78-10.63 0-18.86 8.1-25.74-1.97 3.92-3.58 7.91-2.81 12.54.99-.21 1.29-1.31 2.24-1.82 1.01 5.25.82 10.9 5 15.09 3.99 4.01 8.88 6.29 14.09 8l.66-.78c-1.32-1.08-2.83-2-3.93-3.28-4.58-5.31-6.34-14.3-2.25-20.88.47-.75.74-1.8 1.71-1.8.91 0 1.03 1.12 1.39 1.77 3.55 6.47 9.4 9.57 16.27 11.08 4.75 1.04 9.58.56 14.38.22.39-.03.77-.34 1.4-.64-2.05-1.03-3.95-1.88-5.76-2.91-6.83-3.88-11.12-9.36-10.3-17.64.5-5.07 3.24-8.9 7.5-11.74.6 1.14-.91 1.51-.45 2.57 6.39-4.33 13.79-4.73 22.07-4.57-4.38 3.3-9.32 4.72-12.21 9.39 4.9-1.33 9.6-1.6 14.33-1.5 3.47.08 6.72.98 9.39 3.36 2.31 2.06 2.5 3.09.25 6.43-1.13 1.68-.68 2.17.86 2.78a18.49 18.49 0 016.91 4.7c.44.48 1.4 1.09.29 1.63-3.39 1.65-1.69 3.27-.05 4.86 1 .97.62 1.41-.46 1.76-5.22 1.69-9.05 5.43-13.1 8.85l-8.21 6.98c-.93.79-1.5 1.34-.39 2.73 1.07 1.34 1.53 3.26 1.94 5 .34 1.44.26 2.87-1.38 3.89-8.3 5.15-10.92 12.24-8 21.4.47 1.48.96 3 1.77 4.3.78 1.25.65 1.94-.52 2.73-1.33.89-1.9-.19-2.46-.92-2.91-3.79-4.38-8.24-5.47-12.81a96.2 96.2 0 01-2.59-20.06c-.05-1.98-.13-3.94-.96-6.05-2.52 5.78-4.8 11.45-7.43 16.95-4.19 8.77-11.89 13.84-20.06 18.3-.71.38-1.75.23-2.63.2-4.79-.17-9.61-.18-13.69-3.37-1.37-1.07-2.77-1.32-3.09 1.12-.1.75-.51 1.46-.7 2.21a7.17 7.17 0 01-3.87 4.82c-4.05 2.19-6.92 5.49-8.16 10.05a7.58 7.58 0 01-2.14 3.49 164.4 164.4 0 00-23.22 28.66c-6.17 9.73-10.44 20.27-12.07 31.71-1.05 7.29.1 14.56.76 21.85zm107.08-197.68c10.18 1.5 19.73 4.42 27.22 11.92.35.31.92.51.5 1.15l-.9-.76-8.23-3.07-.18.35c2.6 1.6 5.18 3.23 7.8 4.79a11.5 11.5 0 013.96 3.82c.61.97 1.75 1.97 1.2 3.17-.74 1.63-2.63 2-4.09 1.94a10.94 10.94 0 01-6.55-2.67c1.71-.12 2.9.72 4.63-.41-6.45-4.49-13.24-2.7-20.45-2.28 3.75-3.17 7.86-3.53 12.03-3.98-.85-.96-2.46.33-3.11-1.19.33-.08.64-.21.95-.22.85-.02 1.65-.13 1.85-1.12.23-1.13-.79-1.2-1.45-1.56-1.7-.92-3.65-.79-5.42-.86-5.08-.22-10.21-.15-15.19 1.87 1.43-2.58 3.05-3.31 10.42-4.93-4.54-.15-8.86 1.41-13.31 1.9-.11.34-.31.35-.57.16l.36-.31c4.66-3.32 10.05-4.21 15.9-4.79l-7.37-2.92zm34.22 19.45c2.56 1.77 4.86 3.33 7.13 4.93 1.5 1.06 2.35 2.64 1.85 4.35-.83 2.86.55 1.93 1.96 1.4.47-.18 1.05-.1 2.26-.18-6.64 5.42-4.7 11.44-2.06 17.5-2.64.73-5.01-.45-7.64-.22 2.43-5.94 3.96-11.64-2.03-16.63 1.29-.55 2.6-.88 3.86-1.99-3.73-.07-7.32.11-10.37-2.55 1.57-.71 3.1-1.2 4.42-2.04 1.67-1.07.95-2.77.62-4.57zm32.76 46.43c2.42 2.04 5.04 4.35 7.77 6.52 1.72 1.37.76 2.08-.45 2.93-1.71 1.22-3.9 1.02-5.74 1.97 4.39 1.89 4.48 2.38 1.31 6.15-4.82 5.74-11.15 9.48-17.42 13.31a3.71 3.71 0 01-3.05.37c-11.36-3.2-22.08-7.77-31.38-15.21-1.86-1.49-3.4-2.26-5.29-.11a7.79 7.79 0 01-2.78 1.9c-2.56 1.07-2.7 3.22-2.14 5.28.6 2.21.38 4.39.6 6.64-2.39-2.53-4.45-10.13-3.45-13.34.73-2.33 3-2.69 5-3.25 4.67-1.3 6.17-3.25 7.04-8.09.57-3.16.03-5.57-2.77-7.5 5.2-5.83 11.59-10.1 18.7-13.38 1.4-.65 2.58-.39 3.75.58 6.09 5.06 9.9 11.59 12.28 19.04 1.33 4.17 1.7 8.52 2.4 12.81.35 2.17-.99 4.3-.02 6.89 3.02-13.78 2.52-26.71-4.82-38.8l-.49-.71c.43-.21.77-.15.94.35 6.91 2.6 11.69 7.69 15.73 13.59 1.7 2.48 3.19 5.11 4.89 7.86.5-2.29-1.12-4.32-.61-5.8zm-54.84 18.93c1.49-.93 1.73-.25 2.63.72 5.78 6.21 12.16 11.73 19.7 15.75 4.29 2.29 8.58 4.57 12.98 6.64 1.88.89 2.1 2.59 2.4 4.06.92 9.36 1.04 15.87-1.17 23.67-.09.33-.23.64-.3.97-.03.16.06.34.1.51 2.39-3.35 4.25-9.27 4.46-13.13.28-5.01.82-10 .73-15.03-.04-2.32 2.41-2.87 3.76-4.05 4.27-3.71 8.84-7.07 13.54-10.76 0 0 .17 26.34.28 28.98.11 2.63-4.56 6.74-4.56 6.74-4.72 6.91-10.85 12.52-17.01 18.1-.98.89-1.93 1.81-2.85 2.68-7.47-5.74-14.24-12.28-20.94-18.88a121.84 121.84 0 01-15.9-19.46 4 4 0 01-.58-3.66c2.03-6.38 1.91-12.94 1.41-19.62.01.01-.35-3.18 1.32-4.23zm6.5 47.68l-.23.05-.03-.28.26.23zm-18.15-20.77c-10.35-6.39-21.4-9.2-32.82-11.79 7.6-7.32 16.36-13.37 19.3-24.12 1.09 13.1 5.49 24.86 13.52 35.91zm-54.42-13.12l19.91 12.59c-10.14-1.13-19.54-.41-29.3.52 2.45-4.29 4.38-8.53 10.08-7.27.15-2.06-1.06-3.72-.69-5.84zm-2.4 49.91c3.83 5.66 8.19 10.29 15.34 12.69-2.98-4.12-5.56-7.56-8.01-11.1-3.57-5.16-5.14-11.09-6.21-17.15-.22-1.23 1.11-1.96 1.96-2.62 9.04-7.02 19.15-11.02 30.73-11.44 3.76-.14 5.79 2.03 7.57 4.36 3.51 4.59 8.21 7.22 13.34 9.38.87.37 1.72.76 3.1 1.38-9.25 1.27-17.68 3.76-24.9 8.95-6.61 4.75-9.74 11.9-10.94 19.8-.41 2.73-.9 4.62-3.97 5.62-4.74 1.55-7.13 5.3-7.56 10.28-.05.6-.37 1.17-.7 2.13-4.58-10.42-12.16-19.56-9.75-32.28zm34.85-35.91a60.5 60.5 0 01-22.8-10.63c5.4-.04 10.08 1.16 14.75 2.13 7.09 1.47 14.04 3.5 20.76 6.25 8.54 3.5 15.67 8.96 21.71 15.87 1.27 1.45 3.18 2.34 3.78 4.36l.54.53.53.54.52.53c-.35.23-.51-.02-.66-.31l-.69-.44-.56-.47c-11.03-9.44-23.83-15.01-37.88-18.36zm40.38 32.83c8.39 1.27 14.86 6.06 21.05 11.36 1.96 1.68 3.83 3.47 6 5.45a321.18 321.18 0 01-31.32 14.16c-6.38 2.43-11.88 1.43-17.14-2.31a53.5 53.5 0 01-7.96-7.01c-.51-.55-1.11-.9-.42-1.95 6.36-9.65 14.48-16.94 25.89-20.12 1.51-.42 2.6.23 3.9.42zm-21.78 34.44c.61.11 1.02.64.94 1.4-.64 6.21 2.08 11.51 4.59 16.88.06.13-.04.34-.08.58-8.4-5.92-14.2-13.48-16.08-24.26 3.84 2.02 6.74 4.69 10.63 5.4zm-3.74 16.62a72.44 72.44 0 0117.29 21.35c.7.3 1.1.8 1.1 1.58.67.49 1.5.85 1.6 2.29l-2-1.93-1.06-1.5c-6.5-6.52-12.6-13.36-17.29-21.35-.98-.5-1.25-1.45-1.68-2.47 1.34.19 1.53 1.26 2.04 2.03zm18.49 6.07c8.63 5.18 17.36 8.8 26.3 11.9 1.36.47 1.82.93 1.85 2.29.18 7.43.61 14.84 3.4 22.52-12.52-10.82-23.58-22.05-31.55-36.71zm27.01 5.22c-1.29.87-2.04.95-3.3-.2-3.8-3.49-8.37-5.96-12.56-8.93a117.04 117.04 0 01-14.74-12.59c9.21-2.63 18.32-4.86 26.84-8.84 5.14-2.4 10.12-5.2 15.7-6.48 7.24-1.67 10.55-1.41 14.29 5.97a54.77 54.77 0 012.39 5.16c1.23 3.21 2.23 6.5 3.5 9.68.79 1.98.31 2.88-1.68 3.67a120.62 120.62 0 01-13.52 4.43c-6.19 1.65-11.7 4.58-16.92 8.13zm11.58.36c2.12-2.46 4.88-3.22 7.82-3.58 4.47-.55 8.9.56 13.54.81-1.95 1.55-3.75 3.35-5.89 4.59-3.29 1.91-4.88 4.64-5.32 8.29-.13 1.08-.64 2.12-1 3.27-1.61-2.79-1.26-6.14-2.81-8.89l-1.89 5.12c-1.78-.85-2.9-2.45-4.29-3.75-2.95-2.76-2.81-2.78-.16-5.86zm35.71-21.96c-.15 3.65-1.15 7.07-2.15 10.51-1.61 5.57-4.42 10.48-7.78 15.12-1.76 2.44-3.88 4.06-7.15 2.64-.91-.39-1.95-.47-3.22-1 12.14-5.2 16.47-16.02 20.3-27.27zm-2.84-13.58c-1.91-2.6-3.4-4.84-5.13-6.88-.94-1.11-1.85-2.44-3.4-2.84-2.54-.65-3.7-2.19-3.88-4.86-.47-6.95-.87-13.85 3.15-20.09 1.62-2.51 4.23-3.83 6.51-5.55 4.05-3.06 7.89-6.3 10.74-10.59 1.33-2 1.69-4.33 2.77-6.65 5.47 8.79 14.81 10.92 23.55 14.05 0 1.21-1.08.78-1.59.99-5.83 2.42-9.03 7.47-12.5 12.26-.51.71-1.06 1.39-1.53 2.13-2.27 3.49-2.32 3.55-5.23 1.08-1.41-1.2-2.64-2.16-4.54-.97-1.6.99-4.31-.18-5.11 2.24-.62 1.88-.7 3.94-.98 5.92-.95 6.46-1.86 12.9-2.83 19.76zm22.79-23.04c3.99-2.92 8-5.81 11.93-8.8.8-.61 1.24-.78 1.94.01 2.26 2.56 4.54 5.1 6.85 7.62.64.7.25 1.38-.29 1.44-4.33.55-7.93 3.47-12.31 3.81-2.88 0-5.43-.9-7.9-2.33-1.17-.67-1.22-1.03-.22-1.75zm15.19 47.7c.67.08.97.57 1.15 1.25 2.73 9.95 9.45 16.67 18.02 21.75 2.48 1.47 3.53 3.2 3.41 6.09-.16 3.78.11 7.57.2 11.71-4.85-2.66-9.41-5.08-13.9-7.63-7.59-4.33-15.07-8.87-22.76-13.02-1.93-1.04-1.7-1.77-1.29-3.46 1.16-4.79 2.1-9.64 2.98-14.5.41-2.28 1.88-3.12 3.85-3.04 2.79.12 5.56.52 8.34.85zm53.24-86.02c1.29 14.81 3.28 29.52 7.16 43.97a227.43 227.43 0 015.75 29.97 287.3 287.3 0 012.27 38.65 103.05 103.05 0 01-4.36 28.08 63.94 63.94 0 00-1.65 7.35c-.21 1.3-.57 1.52-1.68.91-2.66-1.45-5.32-2.92-8.04-4.26-1.02-.5-1.25-1.17-1.06-2.12 1.82-8.84 2.52-17.81 3.12-26.8.53-7.86 1.02-15.74.42-23.59a263.9 263.9 0 00-5.43-37.87c-3.77-16.83-7.6-33.65-11.34-50.49-1.43-6.46-2.13-13.08-3.25-19.61-.75-4.38-1.53-8.76-2.59-13.06-.28-1.13 0-1.38.74-1.65 6.24-2.3 12.5-4.58 18.92-6.92.35 3.09-.24 5.91-.18 8.71.22 9.58.37 19.19 1.2 28.73zm-21.84-34.12c-2.92.94-5.82 0-8.5-.82-10.92-3.36-21.82-6.88-31.24-13.66-4.64-3.34-8.94-7.07-12.28-12.46 4.21.28 8.04.53 11.86.81.22.02.49.17.62.34 5.05 6.51 12.65 9.03 19.7 12.24a83.44 83.44 0 0021.7 6.61 76.9 76.9 0 0015.98 1.08c-5.95 1.97-11.89 3.94-17.84 5.86zm47.06-7.69a165.57 165.57 0 0115.73 31.93 220.06 220.06 0 017.84 27.98c1.12 5.19 1.63 10.56 2.24 15.87.71 6.12.82 12.23.76 18.33-.11 11.9-1.29 23.7-3.76 35.4-2.31 10.96-5.19 21.71-9.66 31.97-4.74 10.88-10.06 21.47-16.89 31.23-.68.97-1.62 2.84-2.06 2.73a6.7 6.7 0 01-3.23-1.86c14.13-26.32 12.54-55.54 12.54-55.54-1.36-32.84-6.61-46.03-11.32-62.24-10.31-34.95-11.94-72.39-11.94-72.39l1.47-3.71c-4.67-.24-9.38-.2-14.01-.78-8.16-1.01-16.28-2.41-24.2-4.72-10.62-3.1-20.47-7.58-28.43-15.58-1.9-1.91-4.69-1.66-7.06-2.23-5.6-1.35-11.31-2.24-16.98-3.33a145.96 145.96 0 015.78 24.98c1.33 9.11.75 18.08-1.2 26.97-.48 2.18 0 3.41 1.57 4.41 4.7 2.97 8.4 7.05 12.36 10.83 11.35 10.86 18.9 24.06 23.62 38.94.81 2.55 1.31 5.2 1.9 7.81.12.51.04 1.06.05 1.76l-7.55-3.64c.07-.24.06-.55.22-.72 2.85-3.29 2.86-3.29.63-6.73-1.85-2.85-3.68-5.71-5.61-8.5-1.12-1.63-2.17-3.52-4.98-2.62.83-2.3 2.15-3.6 3.15-5.1.71-1.07.91-1.72-.55-2.59-4.03-2.4-8.18-4.58-12.44-6.51-7.25-3.29-11.94-8.87-15.07-16.11-.05 2.53.04 5.08-.45 7.6-.13.68-.13 1.35-.43 2.03-.86 1.92-1.51 4.55-3.71 4.66-1.87.09-3.28-2.18-4.89-3.42-.89-.68-.24-1.24.01-1.82 2.66-6.18 3.34-12.71 3.9-19.34.44-5.27-.26-10.29-1.47-15.34-.37-1.55-1.24-2.78-2.13-4.76-.48 8.71-1.39 16.65-9.15 22.15-.36-3.89.54-7.33 1.89-10.62a81.92 81.92 0 014.57-9.6c.98-1.71.61-2.86-.43-4.11-7.89-9.39-15.96-18.61-26-25.81-1.13-.81-1.07-1.38-.48-2.12.71-.89.85-1.16-.29-1.97-2.78-1.98-3.43-6.53-.95-9.51.34-.41.68-.85 1.12-1.14 3.25-2.17 4.1-5.19 3.1-8.9-1.18-.03-2.03 1.25-3.34 1.35-.66-1.28.96-2.38.12-3.62a18.1 18.1 0 01-4.63 2.52c.3-15.03-5.97-27.31-15.79-38.23 5.02-1.08 9.81-1.08 14.58-1.1 7.21-.03 14.35.91 21.52 1.52 12.4 1.05 24.32 4.06 36.05 7.92a168.49 168.49 0 0137.16 17.76c8.25 5.2 15.95 11.1 23.32 17.51 13.35 11.65 24.46 25.14 33.88 40.15zM70.27 279.91c-.51-5.33-.47-10.63-.76-15.94-1.11-20.76 2.19-40.95 8.28-60.7a193.17 193.17 0 0129.12-57.65 185.89 185.89 0 0117.69-21.08c12.37-12.51 25.88-23.6 41.28-32.31 14.38-8.13 29.21-15.16 45.22-19.4a227.69 227.69 0 0128.78-5.92c10.35-1.35 20.72-1.63 31.08-1.52 9.74.1 19.38 1.65 29.01 3.27 19 3.2 36.85 9.61 53.97 18.23 11.17 5.63 21.43 12.67 31.42 20.15 5.71 4.27 10.67 9.31 15.59 14.52-21.06-17.34-44.49-30.18-70.66-37.84-26.33-7.7-53.11-9.15-80.79-5.53l6.14 4.57c6.84 5.11 13.33 10.73 17.79 18.03 3.9 6.38 6.55 13.43 6.04 21.58-3.87-1.88-6.34-4.9-8.65-8.07-2.91-3.99-5.71-8.07-10.06-10.7l-.46.53 1.51 4.21c-20.56-17.74-42.08-15.72-64.19-4.6l2.8.07c-.81 1.48-2.54 1.71-3.74 3.48 7.47-3.1 14.3-6.52 22.23-6.5-8.52 3.85-14.49 9.86-17.12 18.87-.17.59-.32 1.2-.35 1.8-.21 4.15-3.12 6.91-5.23 10.04-4.68 6.93-5.69 12.3-3.73 20.65-6.18-5.03-6.68-19.54 4.04-28.22-4.29.52-5.97 1.72-9.96 7.15.35-3.95 3.73-8.97 9.19-13.64-6.36-.6-16.06 7.45-22.93 19.38 2.24-10.53 8.26-17.53 16.11-23.37-4.09-.2-10.14 5.38-15.39 14.04-.45-9.84 15.08-26.29 32.82-35-3.73.78-7.53 1.31-11.04 2.91-14.42 6.59-27.22 15.68-39.35 25.76-7.87 6.55-15 13.91-21.63 21.65a177.48 177.48 0 00-28.1 44.93c-6.42 14.8-11.32 30.11-13.8 46.07a170.39 170.39 0 00-1.93 20.48c-.24 7.12-.05 14.21.11 21.31.24 10.86 2.23 21.49 4.69 32.02 3.39 14.55 8.89 28.33 15.53 41.68.38.75.84 1.4-.05 2.33a51 51 0 01-11.74 9.35c-1.32.75-2.02.49-2.74-.76-8.97-15.45-16.12-31.64-20.44-49.03-2.54-10.31-4.59-20.67-5.6-31.28zm62.41 126.78a78.14 78.14 0 01-17.86 3.01c17.3-4.4 31.65-13.84 44.93-25.46-.95-.87-1.33-.31-1.83.02-12.93 8.55-26.52 15.76-41.58 19.84-6.03 1.63-12.21 2.4-18.45 2.92-3.36.28-6.71.77-10.07.63-3.75-.15-7.54-.26-11.2-1.3-.6-.17-1.14-.38-1.53-.95 2.44-.46 4.77.39 7.17.35 11.82-.19 23.02-3.21 34.12-6.93 10.16-3.41 19.57-8.27 27.77-15.08 7.64-6.35 13.61-14.18 18.54-22.88 5.32-9.39 7.55-19.45 8.35-30.07.44-5.79.31-11.55-.07-17.28-.41-6.19-1.6-12.33-3.07-18.38-.1-.4-.44-.73-.88-1.08.72 4.3.66 8.62.69 12.93.08 14.56-1.39 28.89-6.51 42.66-5.48 14.75-14.48 26.52-28.28 34.55a90.1 90.1 0 01-28.08 10.69 74.73 74.73 0 01-35.56-1.37c-8.82-2.55-17.1-6.06-24.66-11.39-6.29-4.44-9.83-10.42-11.34-17.76a93.27 93.27 0 01-2.03-20.27c.05-2.98.54-5.94.61-9.28 10.07 22.63 27.86 33.38 52.59 34.52-7.57 4.53-15.24 3.56-22.8 3.27 4.79 2.56 12.21 3.02 17.94 2.38 7.74-.87 14.56-3.84 21.08-7.69a89.59 89.59 0 0014.87-11.28c6.69-6.14 12.7-12.77 17.42-20.54a39.9 39.9 0 004.9-12.92c1.78 19.18-8.69 36.21-28.02 47.78 3.35-.02 5.97-1.48 8.6-2.71 6.78-3.16 11.95-8.13 16.36-14.16 7.83-10.72 10.66-23.19 13.4-35.76 2.67-12.22 3.44-24.55 2.98-37.04-.38-10.33 3.32-19.27 10.57-26.7.68-.69 1.31-1.46 2.97-1.52-7.1 13.49-9.8 27.38-7.13 42.11-.3-7.92.58-15.71 3.49-23.11 2.87-7.3 5.93-14.54 11.89-21.05-.31 5.86.48 10.91-.16 16.05-.65 5.2.26 10.37 1.87 15.39 1.99 6.21 2.71 12.65 3.68 19.06 1.09 7.22 1.74 14.47 1.38 21.71-.67 13.57-2.93 26.82-10.44 38.77 1.37.19 2.12-.7 3.02-1.44 5.23-4.34 7.56-10.25 9.01-16.6 1.93-8.43 2.99-17.02 4.5-25.94 1.38 7.84 1.18 15.28.37 22.78-.81 7.43-2.03 14.74-4.44 21.8-3.56 10.46-8.77 19.99-16.96 27.55-9.15 8.49-20.15 13.8-32.12 17.17zm75.84 22.09c-2.95-1.44-22.63-4.37-45.45-26.06 40-2.23 40.73-41.43 45.18-50.43 0 0 8.32 29.72 1.58 70.36.25 6.24-.31 6.62-1.31 6.13zm2.08-144.01c-2.64 3.11-2.79 7.32-3.53 11.19-.1.53-.04 1.06-.8 1.42-1.6-4.95-2.7-10.12-7.81-13.03-4.13-2.35-4.08-2.47-2.38-7.06.36-.96.9-1.86 1.4-2.77 2.58-4.72 5.74-5.27 9.6-1.7a22.43 22.43 0 013.45 4.32c1.66 2.51 2.47 4.8.07 7.63zm-5.29-16.86c-1.58-1.14-1.98-2.24-1.22-4.34 3.37-9.26 9.47-15.86 18.18-20.33 5.65-2.9 11.64-4.01 17.89-4.06 1.47-.01 2.94.31 4.41.48-16.51 5.98-27.89 16.31-31.11 34.23-2.81-2.06-5.47-4.04-8.15-5.98zm11.85 33.31c-.64-1.46.4-4.57 1.72-5.3 1.03-.57.97.41 1.21.82 3.09 5.15 6.42 10.1 10.36 14.67a70.8 70.8 0 0013.98 12.34c.21.14.34.39.85.99-4.67-1.1-8.44-3.16-12.16-5.19-7.53-4.12-12.53-10.57-15.96-18.33zm64.7 79.24c-.6 1.24-1.17 1.58-2.62 1.35-9.72-1.53-18.06-6.31-26.45-10.99a132.71 132.71 0 01-16.77-10.96c-1.24-.96-2.27-2.19-3.4-3.3 19.59 8.85 39.31 14.72 60.16 2.96l-5.99 11.49c-1.66 3.15-3.38 6.26-4.93 9.45zm36.5-2.6c-1.63 7.78-3.5 15.51-5.29 23.26-.37 1.6-.78 2.21-2.81 1.31-6.04-2.66-12.56-3.32-19.1-3.57l-1.76-.09c3.77-8.2 6.7-16.49 9.76-24.73 3.49-9.41 6.75-18.91 8.29-28.85.67-4.33.65-8.76.88-13.15.23-4.29.99-8.58-.21-12.85-.24-.87.68-.96 1.14-1.23 8.45-5.05 12.93-12.84 15.38-22.08 2.49-9.36 3.59-18.96 4.55-28.54.5-4.94 1.05-9.93.95-15.23 1.42 1.09 1.43 2.72 2.44 3.8 3.24 3.45 7.65 3.46 11.76 4.37.76.17 1.54.29 2.31.45 3.22.67 3.14.57 1.88 3.74-4.32 10.81-8.67 21.64-10.38 33.24-.84 5.68-1.65 11.4-1.37 17.59-2.24-1.19-4.14-2.15-5.99-3.2-.95-.54-1.57-.54-2.4.36-5.1 5.47-10.27 10.87-15.44 16.27-.64.67-.77 1.14-.54 2.21a677.66 677.66 0 015.47 27.12c.56 3.18 1.3 6.31 1.87 9.47.67 3.54-.68 6.94-1.39 10.33zm46.82 44.39c-4.22 2.16-16.05 6.63-20.42 8.49-8.98 3.61-8.33 1.89-12.73-51.28 1.99 1.78 4.02 3.4 5.77 5.29 6.58 7.11 13.12 14.25 19.68 21.37 2.92 3.17 5.91 6.28 8.8 9.49 2.35 2.61 1.92 5.09-1.1 6.64zm13.97-22.52a91.8 91.8 0 00-10.03-1.46 3.93 3.93 0 01-2.68-1.39c-7.67-7.98-15.54-15.77-22.97-23.98-1.17-1.3-2.72-2.26-4.09-3.38l.51-.69c11.75 3.69 23.43 7.6 35.27 10.97 7.65 2.18 12.83 7.82 18.9 12.2 6.31 4.56 12.36 9.47 18.53 14.22 3.25 2.5 6.5 5 9.57 7.88-3.75-1.49-7.49-3.02-11.25-4.47-10.38-3.99-20.85-7.66-31.76-9.9zm18.05 28.67c-3.71-3.75-7.41-7.52-11.57-11.75 34.33 6.7 66.23 17.26 92.58 40.58-3.04-1.33-6.07-2.7-9.13-3.99-15.39-6.51-30.44-13.87-46.58-18.49-7.88-2.25-15.78-4.46-23.91-5.67a2.3 2.3 0 01-1.39-.68zm138.46 79.8c-7.67-2.44-15.51-4.21-23.27-6.27-19.28-5.11-38.59-10.16-57.83-15.4-3.36-.91-5.35-4.07-7.54-6.54-2.76-3.1-5.69-6.07-8.63-8.94-8.57-8.36-16.46-17.37-25.03-25.72-.73-.71-1.26-1.62-2.05-2.65 3.24-.12 6.06.85 8.83 1.58a427.87 427.87 0 0152.53 17.61c8.16 3.32 16.15 7.03 24.21 10.56 5.29 2.32 9.64 5.91 14.11 9.39 8.31 6.44 16.63 12.86 24.96 19.27 4.42 3.4 8.86 6.75 13.1 10.53-4.48-1.13-9.01-2.03-13.39-3.42zm19.18 4.83c-4.02-3.09-8.06-6.17-12.07-9.27-3.8-2.94-7.59-5.91-11.37-8.87a3.36 3.36 0 01-1.38-1.85c-4-14.94-8.77-29.64-13.52-44.36a41.11 41.11 0 01-1.7-7.04l40.34 71.09-.3.3z"/>
  <linearGradient id="SVGID_2_" x1="226.1627" x2="251.8119" y1="84.0647" y2="84.0647" gradientUnits="userSpaceOnUse">
    <stop offset="0"/>
    <stop offset="1" stop-color="#171717"/>
  </linearGradient>
  <path fill="url(#SVGID_2_)" d="M251.81 89.53c-8-5.32-16.71-5.8-25.65-5.92.98-.28 1.98-.51 2.94-.86 1.09-.4 2.25-.4 3.34-.63a89.07 89.07 0 009.53-2.52c1.35-.45 2.82-.05 4.09-.88.59-.38 1.21.24 1.56.73 1.37 1.92 2.9 3.77 3.94 5.86.61 1.21-1.56 2.73.25 4.22z"/>
  <linearGradient id="SVGID_3_" x1="275.9841" x2="280.9445" y1="223.0203" y2="223.0203" gradientUnits="userSpaceOnUse">
    <stop offset="0"/>
    <stop offset="1" stop-color="#171717"/>
  </linearGradient>
  <path fill="url(#SVGID_3_)" d="M275.98 211.84c5.06 1.52 4.67 1.54 4.9 6.56.21 4.65-.1 9.22-.58 13.8-.06.56.5 2.08-.99 2a2.07 2.07 0 01-2.07-1.99c-.67-6.7-1.15-13.41-1.26-20.37z"/>
  <linearGradient id="SVGID_4_" x1="267.8878" x2="271.8783" y1="219.5219" y2="219.5219" gradientUnits="userSpaceOnUse">
    <stop offset="0"/>
    <stop offset="1" stop-color="#171717"/>
  </linearGradient>
  <path fill="url(#SVGID_4_)" d="M271.88 230.43c-3.3-1.2-3.92-3.02-3.98-5.69-.12-5.33.8-10.61.19-16.13 2.29.33 3.48 1 3.45 3.56-.08 5.99.2 11.98.34 18.26z"/>
  <linearGradient id="SVGID_5_" x1="299.4517" x2="303.0987" y1="216.5573" y2="216.5573" gradientUnits="userSpaceOnUse">
    <stop offset="0"/>
    <stop offset="1" stop-color="#171717"/>
  </linearGradient>
  <path fill="url(#SVGID_5_)" d="M299.54 226.19c-.39-5.61.63-10.56.13-15.51-.21-2.06 1.75-2.06 3.13-3.74.12 5.48.42 10.22.23 14.94-.06 1.66-2.09 2.59-3.49 4.31z"/>
  <linearGradient id="SVGID_6_" x1="260.1643" x2="265.1237" y1="214.519" y2="214.519" gradientUnits="userSpaceOnUse">
    <stop offset="0"/>
    <stop offset="1" stop-color="#171717"/>
  </linearGradient>
  <path fill="url(#SVGID_6_)" d="M260.96 204.58l3.19 1.33s1.03.37.97 2.03c-.07 1.66-.25 16.52-.25 16.52s-3.26-.74-4.32-4.02c-1.06-3.27.41-15.86.41-15.86z"/>
  <linearGradient id="SVGID_7_" x1="293.0783" x2="296.7253" y1="220.8176" y2="220.8176" gradientUnits="userSpaceOnUse">
    <stop offset="0"/>
    <stop offset="1" stop-color="#171717"/>
  </linearGradient>
  <path fill="url(#SVGID_7_)" d="M293.17 230.45c-.39-5.61.63-10.56.13-15.51-.21-2.06 1.75-2.06 3.13-3.74.12 5.48.42 10.22.23 14.94-.06 1.66-2.09 2.59-3.49 4.31z"/>
  <linearGradient id="SVGID_8_" x1="253.5542" x2="258.5136" y1="209.206" y2="209.206" gradientUnits="userSpaceOnUse">
    <stop offset="0"/>
    <stop offset="1" stop-color="#171717"/>
  </linearGradient>
  <path fill="url(#SVGID_8_)" d="M254.35 199.26l3.19 1.33s1.03.37.97 2.03c-.07 1.66-.25 16.52-.25 16.52s-3.26-.74-4.32-4.02.41-15.86.41-15.86z"/>
  <path d="M260.33 104.12l1.51 4.21c-20.56-17.74-42.08-15.72-64.19-4.6l2.8.07c-.81 1.48-2.54 1.71-3.74 3.48 7.47-3.1 14.3-6.52 22.23-6.5-8.52 3.85-14.49 9.86-17.12 18.87-.17.59-.32 1.2-.35 1.8-.21 4.15-3.12 6.91-5.23 10.04-4.68 6.93-5.69 12.3-3.73 20.65-6.18-5.03-6.68-19.54 4.04-28.22-4.29.52-5.97 1.72-9.96 7.15.35-3.95 3.73-8.97 9.19-13.64-6.36-.6-16.06 7.45-22.93 19.38 2.24-10.53 8.26-17.53 16.11-23.37-4.09-.2-10.14 5.38-15.39 14.04-.45-9.84 15.08-26.29 32.82-35-3.73.78-7.53 1.31-11.04 2.91-14.42 6.59-27.22 15.68-39.35 25.76-7.87 6.55-15 13.91-21.63 21.65a177.48 177.48 0 00-28.1 44.93c-6.42 14.8-11.32 30.11-13.8 46.07a170.39 170.39 0 00-1.93 20.48c-.24 7.12-.05 14.21.11 21.31.24 10.86 2.23 21.49 4.69 32.02 3.39 14.55 8.89 28.33 15.53 41.68.37.75.84 1.4-.05 2.33a51 51 0 01-11.74 9.35c-1.32.75-2.02.49-2.74-.76-8.97-15.45-16.12-31.64-20.44-49.03-2.56-10.3-4.61-20.66-5.62-31.27-.51-5.33-.47-10.63-.76-15.94-1.11-20.76 2.19-40.95 8.28-60.7a193.17 193.17 0 0129.12-57.65 185.89 185.89 0 0117.69-21.08c12.37-12.51 25.88-23.6 41.28-32.31 14.38-8.13 29.21-15.16 45.22-19.4a227.69 227.69 0 0128.78-5.92c10.35-1.35 20.72-1.63 31.08-1.52 9.74.1 19.38 1.65 29.01 3.27 19 3.2 36.85 9.61 53.97 18.23 11.17 5.63 21.43 12.67 31.42 20.15 5.71 4.27 10.67 9.31 15.59 14.52-21.06-17.34-44.49-30.18-70.66-37.84-26.33-7.7-53.11-9.15-80.79-5.53l6.14 4.57c6.84 5.11 13.33 10.73 17.79 18.03 3.9 6.38 6.55 13.43 6.04 21.58-3.87-1.88-6.34-4.9-8.65-8.07-2.91-3.99-5.71-8.07-10.06-10.7-.25-.15-.38-.74-.75-.35-.23.25-.05.66.31.87zm-8.52-14.59c-1.82-1.49.36-3-.24-4.22-1.04-2.09-2.57-3.94-3.94-5.86-.35-.49-.97-1.11-1.56-.73-1.28.83-2.74.43-4.09.88a91.5 91.5 0 01-9.53 2.52c-1.1.24-2.25.24-3.34.63-.96.35-1.96.58-2.94.86 8.93.12 17.64.6 25.64 5.92z" class="st9"/>
  <path d="M164.74 252.43c-7.1 13.49-9.8 27.38-7.13 42.11-.3-7.92.58-15.71 3.49-23.11 2.87-7.3 5.93-14.54 11.89-21.05-.31 5.86.48 10.91-.16 16.05-.65 5.2.26 10.37 1.87 15.39 1.99 6.21 2.71 12.65 3.68 19.06 1.09 7.22 1.74 14.47 1.38 21.71-.67 13.57-2.93 26.82-10.44 38.77 1.37.19 2.12-.7 3.02-1.44 5.23-4.34 7.56-10.25 9.01-16.6 1.93-8.43 2.99-17.02 4.5-25.94 1.38 7.84 1.18 15.28.37 22.78-.81 7.43-2.03 14.74-4.44 21.8-3.56 10.46-8.77 19.99-16.96 27.55-9.19 8.49-20.19 13.79-32.16 17.17a78.14 78.14 0 01-17.86 3.01c17.3-4.4 31.65-13.84 44.93-25.46-.95-.87-1.33-.31-1.83.02-12.93 8.55-26.52 15.76-41.58 19.84-6.03 1.63-12.21 2.4-18.45 2.92-3.36.28-6.71.77-10.07.63-3.75-.15-7.54-.26-11.2-1.3-.6-.17-1.14-.38-1.53-.95 2.44-.46 4.77.39 7.17.35 11.82-.19 23.02-3.21 34.12-6.93 10.16-3.41 19.57-8.27 27.77-15.08 7.64-6.35 13.61-14.18 18.54-22.88 5.32-9.39 7.55-19.45 8.35-30.07.44-5.79.31-11.55-.07-17.28-.41-6.19-1.6-12.33-3.07-18.38-.1-.4-.44-.73-.88-1.08.72 4.3.66 8.62.69 12.93.08 14.56-1.39 28.89-6.51 42.66-5.48 14.75-14.48 26.52-28.28 34.55a90.1 90.1 0 01-28.08 10.69 74.73 74.73 0 01-35.56-1.37c-8.82-2.55-17.1-6.06-24.66-11.39-6.29-4.44-9.83-10.42-11.34-17.76a93.27 93.27 0 01-2.03-20.27c.05-2.98.54-5.94.61-9.28 10.07 22.63 27.86 33.38 52.59 34.52-7.57 4.53-15.24 3.56-22.8 3.27 4.79 2.56 12.21 3.02 17.94 2.38 7.74-.87 14.56-3.84 21.08-7.69A89.59 89.59 0 00115.52 356c6.69-6.14 12.7-12.77 17.42-20.54a39.9 39.9 0 004.9-12.92c1.78 19.18-8.69 36.21-28.02 47.78 3.35-.02 5.97-1.48 8.6-2.71 6.78-3.16 11.95-8.13 16.36-14.16 7.83-10.72 10.66-23.19 13.4-35.76 2.67-12.22 3.44-24.55 2.98-37.04-.38-10.33 3.32-19.27 10.57-26.7.72-.69 1.35-1.46 3.01-1.52zm4.12 109.69c-.12-.05-.25-.17-.35-.14-.14.04-.26.17-.39.26l.57.28.17-.4zm-8.66 21.15c.15-.08.37-.13.41-.25.1-.28-.06-.45-.36-.36-.13.04-.23.19-.34.3l.29.31zM163.88 222.33c5.82-6.97 13.58-8.29 22.04-7.51a146 146 0 0113.02 1.71c-21.03 8.27-35.61 23.67-47.46 42.18 6.63-15.93 16.63-29.17 30.85-39.5-5.65-.54-10.63.91-15.55 2.68-.82.3-1.66.54-2.49.81a13.7 13.7 0 01-.41-.37zM262.77 113.06l-8.23-3.07-.18.35c2.6 1.6 5.18 3.23 7.8 4.79a11.5 11.5 0 013.96 3.82c.61.97 1.75 1.97 1.2 3.17-.74 1.63-2.63 2-4.09 1.94a10.94 10.94 0 01-6.55-2.67c1.71-.12 2.9.72 4.63-.41-6.45-4.49-13.24-2.7-20.45-2.28 3.75-3.17 7.86-3.53 12.03-3.98-.85-.96-2.46.33-3.11-1.19.33-.08.63-.21.95-.22.85-.02 1.65-.13 1.85-1.12.23-1.13-.79-1.2-1.45-1.56-1.7-.92-3.65-.79-5.42-.86-5.08-.22-10.21-.15-15.19 1.87 1.43-2.58 3.05-3.31 10.42-4.93-4.54-.15-8.86 1.41-13.31 1.9l-.21-.15c4.66-3.32 10.05-4.21 15.9-4.79l-7.38-2.92c10.18 1.5 19.73 4.42 27.22 11.92l-.39.39zM252.34 231.72c-11.01-9.44-23.82-15.02-37.87-18.37a60.5 60.5 0 01-22.8-10.63c5.4-.04 10.08 1.16 14.75 2.13 7.09 1.47 14.04 3.5 20.76 6.25 8.54 3.5 15.67 8.96 21.71 15.87 1.27 1.45 3.18 2.34 3.78 4.36-.13.12-.24.25-.33.39zM182.02 199.35l19.91 12.59c-10.14-1.13-19.54-.41-29.3.52 2.45-4.29 4.38-8.53 10.08-7.26.15-2.07-1.06-3.73-.69-5.85zM160.84 408.06c78.68 75.22 175.53 33.66 175.53 33.66l3.32 5.29c-108.37 35.1-174.38-6.11-195.86-26.65l17.01-12.3z" class="st9"/>
  <path d="M248.73 184.68c1.49-.93 1.73-.25 2.63.72 5.78 6.21 12.16 11.73 19.7 15.75 4.29 2.29 8.58 4.57 12.98 6.64 1.88.89 2.1 2.59 2.4 4.06.92 9.36 1.04 15.87-1.17 23.67-.09.33-.23.64-.3.97-.03.16.06.34.1.51 2.39-3.35 4.25-9.27 4.46-13.13.28-5.01.82-10 .73-15.03-.04-2.32 2.41-2.87 3.76-4.05 4.27-3.71 8.84-7.07 13.54-10.76 0 0 .17 26.34.28 28.98.11 2.63-4.56 6.74-4.56 6.74-4.72 6.91-10.85 12.52-17.01 18.1-.98.89-1.93 1.81-2.85 2.68-7.47-5.74-14.24-12.28-20.94-18.88a121.84 121.84 0 01-15.9-19.46 4 4 0 01-.58-3.66c2.03-6.38 1.91-12.94 1.41-19.62 0 0-.35-3.19 1.32-4.23zM516.35 481.72L317.44 327.76c4.21-2.93 8.27-5.72 12.26-8.58.73-.52 1.21-.79 2.1-.29a5316.32 5316.32 0 0032.95 18.42c13.65 7.55 27.36 15 41.01 22.55 10.17 5.63 20.28 11.37 30.44 17.01 12.06 6.7 24.14 13.35 36.22 20.01 6.81 3.76 13.64 7.48 20.44 11.27a6.55 6.55 0 012.87 2.88c5.05 10.43 9.97 20.91 12.67 32.26 2.29 9.64 4.93 19.2 6.38 29.03.45 3.07 1.37 6.06 2.08 9.09l-.51.31z" class="st10"/>
  <path d="M411.93 441.8c3.24-.12 6.06.85 8.83 1.58a427.87 427.87 0 0152.53 17.61c8.16 3.32 16.15 7.03 24.21 10.56 5.29 2.32 9.64 5.91 14.11 9.39 8.31 6.44 16.63 12.86 24.96 19.27 4.42 3.4 8.86 6.75 13.1 10.53-4.46-1.12-8.99-2.03-13.37-3.42-7.67-2.44-15.51-4.21-23.27-6.27-19.28-5.11-38.59-10.16-57.83-15.4-3.36-.91-5.35-4.07-7.54-6.54-2.76-3.1-5.69-6.07-8.63-8.94-8.57-8.36-16.46-17.37-25.03-25.72-.75-.71-1.28-1.62-2.07-2.65z" class="st11"/>
  <path fill="#a7a9ac" d="M410.11 173.66c.35 3.09-.24 5.91-.18 8.71.22 9.58.37 19.19 1.2 28.73 1.29 14.81 3.28 29.52 7.16 43.97a227.43 227.43 0 015.75 29.97 287.3 287.3 0 012.27 38.65 103.05 103.05 0 01-4.36 28.08 63.94 63.94 0 00-1.65 7.35c-.21 1.3-.57 1.52-1.68.91-2.66-1.45-5.32-2.92-8.04-4.26-1.02-.5-1.25-1.17-1.06-2.12 1.82-8.84 2.52-17.81 3.13-26.8.53-7.86 1.02-15.74.42-23.59a263.9 263.9 0 00-5.43-37.87c-3.77-16.83-7.6-33.65-11.34-50.49-1.43-6.46-2.13-13.08-3.25-19.61-.75-4.38-1.53-8.76-2.59-13.06-.28-1.13 0-1.38.74-1.65l18.91-6.92z"/>
  <path d="M337.43 314.41c-2.24-1.19-4.14-2.15-5.99-3.2-.95-.54-1.57-.54-2.4.36-5.1 5.47-10.27 10.87-15.44 16.27-.64.67-.77 1.14-.54 2.21a677.66 677.66 0 015.47 27.12c.56 3.18 1.3 6.31 1.87 9.47.65 3.54-.7 6.94-1.41 10.33-1.63 7.78-3.5 15.51-5.29 23.26-.37 1.6-.78 2.21-2.81 1.31-6.04-2.66-12.56-3.32-19.1-3.57l-1.76-.09c3.77-8.2 6.7-16.49 9.76-24.73 3.49-9.41 6.75-18.91 8.29-28.85.67-4.33.65-8.76.88-13.15.23-4.29.99-8.58-.21-12.85-.24-.87.68-.96 1.14-1.23 8.45-5.05 12.93-12.84 15.38-22.08 2.49-9.36 3.59-18.96 4.55-28.54.5-4.94 1.05-9.93.95-15.23 1.42 1.09 1.43 2.72 2.44 3.8 3.24 3.45 7.65 3.46 11.76 4.37.76.17 1.54.29 2.31.45 3.22.67 3.14.57 1.88 3.74-4.32 10.81-8.67 21.64-10.38 33.24-.82 5.68-1.63 11.39-1.35 17.59zM283.57 150.12c6.91 2.6 11.69 7.69 15.73 13.59 1.7 2.48 3.19 5.11 4.89 7.86.48-2.32-1.15-4.35-.63-5.82 2.42 2.04 5.04 4.35 7.77 6.52 1.72 1.37.76 2.08-.45 2.93-1.71 1.22-3.9 1.02-5.74 1.97 4.39 1.89 4.48 2.38 1.31 6.15-4.82 5.74-11.15 9.48-17.42 13.31a3.71 3.71 0 01-3.05.37c-11.36-3.2-22.08-7.77-31.38-15.21-1.86-1.49-3.4-2.26-5.29-.11a7.79 7.79 0 01-2.78 1.9c-2.56 1.07-2.7 3.22-2.14 5.28.6 2.21.38 4.39.6 6.64-2.39-2.53-4.45-10.13-3.45-13.34.73-2.33 3-2.69 5-3.25 4.67-1.3 6.17-3.25 7.04-8.09.57-3.16.03-5.57-2.77-7.5 5.2-5.83 11.59-10.1 18.7-13.38 1.4-.65 2.58-.39 3.75.58 6.09 5.06 9.9 11.59 12.28 19.04 1.33 4.17 1.7 8.52 2.4 12.81.35 2.17-.99 4.3-.02 6.89 3.02-13.78 2.52-26.71-4.82-38.8.18-.1.33-.22.47-.34zM238.05 233.88c-9.25 1.27-17.68 3.76-24.9 8.95-6.61 4.75-9.74 11.9-10.94 19.8-.41 2.73-.9 4.62-3.97 5.62-4.74 1.55-7.13 5.3-7.56 10.28-.05.6-.37 1.17-.7 2.13-4.55-10.44-12.14-19.57-9.73-32.29 3.83 5.66 8.19 10.29 15.34 12.69-2.98-4.12-5.56-7.56-8.01-11.1-3.57-5.16-5.14-11.09-6.21-17.15-.22-1.23 1.11-1.96 1.96-2.62 9.04-7.02 19.15-11.02 30.73-11.44 3.76-.14 5.79 2.03 7.57 4.36 3.51 4.59 8.21 7.22 13.34 9.38l3.08 1.39zM244.87 285.92c9.21-2.63 18.32-4.86 26.84-8.84 5.14-2.4 10.12-5.2 15.7-6.48 7.24-1.67 10.55-1.41 14.29 5.97a54.77 54.77 0 012.39 5.16c1.23 3.21 2.23 6.5 3.5 9.68.79 1.98.31 2.88-1.68 3.67a120.62 120.62 0 01-13.52 4.43c-6.19 1.65-11.69 4.58-16.92 8.13-1.29.87-2.04.95-3.3-.2-3.8-3.49-8.37-5.96-12.56-8.93a117.04 117.04 0 01-14.74-12.59zM282.53 262.11a321.18 321.18 0 01-31.32 14.16c-6.38 2.43-11.88 1.43-17.14-2.31a53.5 53.5 0 01-7.96-7.01c-.51-.55-1.11-.9-.42-1.95 6.36-9.65 14.48-16.94 25.89-20.12 1.51-.42 2.6.23 3.9.42 8.39 1.27 14.86 6.06 21.05 11.36 1.96 1.68 3.83 3.47 6 5.45z" class="st10"/>
  <path d="M319.91 272.47c-1.91-2.6-3.4-4.84-5.13-6.88-.94-1.11-1.85-2.44-3.4-2.84-2.54-.65-3.7-2.19-3.88-4.86-.47-6.95-.87-13.85 3.15-20.09 1.62-2.51 4.23-3.83 6.51-5.55 4.05-3.06 7.89-6.3 10.74-10.59 1.33-2 1.69-4.33 2.77-6.65 5.47 8.79 14.81 10.92 23.55 14.05 0 1.21-1.08.78-1.59.99-5.83 2.42-9.03 7.47-12.5 12.26-.51.71-1.06 1.39-1.53 2.13-2.27 3.49-2.32 3.55-5.23 1.08-1.41-1.2-2.64-2.16-4.54-.97-1.6.99-4.31-.18-5.11 2.24-.62 1.88-.7 3.94-.98 5.92-.94 6.45-1.85 12.9-2.83 19.76z" class="st10"/>
  <path d="M340.52 367.95c11.75 3.69 23.43 7.6 35.27 10.97 7.65 2.18 12.83 7.82 18.9 12.2 6.31 4.56 12.36 9.47 18.53 14.22 3.25 2.5 6.5 5 9.57 7.88-3.75-1.49-7.49-3.02-11.25-4.47-10.37-4-20.84-7.67-31.76-9.91a91.8 91.8 0 00-10.03-1.46 3.93 3.93 0 01-2.68-1.39c-7.67-7.98-15.54-15.77-22.97-23.98-1.17-1.3-2.72-2.26-4.09-3.38l.51-.68z" class="st11"/>
  <path d="M380.68 337.93c-4.85-2.66-9.41-5.08-13.9-7.63-7.59-4.33-15.07-8.87-22.76-13.02-1.93-1.04-1.7-1.77-1.29-3.46 1.16-4.79 2.1-9.64 2.98-14.5.41-2.28 1.88-3.12 3.85-3.04 2.78.11 5.55.52 8.33.85.67.08.97.57 1.15 1.25 2.73 9.95 9.45 16.67 18.02 21.75 2.48 1.47 3.53 3.2 3.41 6.09-.15 3.77.12 7.57.21 11.71z" class="st10"/>
  <path d="M478.84 456.34c-3.04-1.33-6.07-2.7-9.13-3.99-15.39-6.51-30.44-13.87-46.58-18.49-7.88-2.25-15.78-4.46-23.91-5.67a2.36 2.36 0 01-1.38-.68c-3.71-3.75-7.41-7.52-11.57-11.75 34.32 6.71 66.22 17.26 92.57 40.58zM233.24 355.68c19.59 8.85 39.31 14.72 60.16 2.96l-5.99 11.49c-1.65 3.15-3.36 6.25-4.92 9.45-.6 1.24-1.17 1.58-2.62 1.35-9.72-1.53-18.06-6.31-26.45-10.99a132.71 132.71 0 01-16.77-10.96c-1.25-.96-2.28-2.19-3.41-3.3z" class="st11"/>
  <path d="M515.43 440.76l40.34 71.09-.31.3c-4.02-3.09-8.06-6.17-12.07-9.27-3.8-2.94-7.59-5.91-11.37-8.87a3.36 3.36 0 01-1.38-1.85c-4-14.94-8.77-29.64-13.52-44.36a44.1 44.1 0 01-1.69-7.04zM337.26 150.05c4.21.28 8.04.53 11.86.81.22.02.49.17.62.34 5.05 6.51 12.65 9.03 19.7 12.24a83.44 83.44 0 0021.7 6.61 76.9 76.9 0 0015.98 1.08c-5.95 1.95-11.89 3.93-17.84 5.85-2.92.94-5.82 0-8.5-.82-10.92-3.36-21.82-6.88-31.24-13.66-4.64-3.34-8.93-7.06-12.28-12.45zM245.2 238.77c-16.51 5.98-27.89 16.31-31.11 34.23-2.81-2.07-5.47-4.04-8.16-5.99-1.58-1.14-1.98-2.24-1.22-4.34 3.37-9.26 9.47-15.86 18.18-20.33 5.65-2.9 11.64-4.01 17.89-4.06 1.48 0 2.95.33 4.42.49zM223.56 175.68c1.08 13.1 5.48 24.85 13.52 35.91-10.35-6.39-21.4-9.2-32.82-11.79 7.59-7.31 16.35-13.37 19.3-24.12z" class="st10"/>
  <path d="M248.46 302.43c8.63 5.18 17.36 8.8 26.3 11.9 1.36.47 1.82.93 1.85 2.29.18 7.43.61 14.84 3.4 22.52-12.52-10.82-23.59-22.05-31.55-36.71zM206.9 296.49c-1.6-4.95-2.7-10.12-7.81-13.03-4.13-2.35-4.08-2.47-2.38-7.06.36-.96.9-1.86 1.4-2.77 2.58-4.72 5.74-5.27 9.6-1.7a22.43 22.43 0 013.45 4.32c1.66 2.53 2.47 4.82.07 7.64-2.64 3.11-2.79 7.32-3.53 11.19-.1.52-.04 1.06-.8 1.41z" class="st11"/>
  <path d="M308.41 305.23c-1.95 1.55-3.75 3.35-5.89 4.59-3.29 1.91-4.88 4.64-5.32 8.29-.13 1.08-.64 2.12-1 3.27-1.61-2.79-1.26-6.14-2.81-8.89l-1.89 5.12c-1.78-.85-2.9-2.45-4.29-3.75-2.96-2.76-2.82-2.77-.16-5.86 2.12-2.46 4.88-3.22 7.82-3.58 4.47-.54 8.9.56 13.54.81zM270.8 119.32c2.56 1.77 4.86 3.33 7.13 4.93 1.5 1.06 2.35 2.64 1.85 4.35-.83 2.86.55 1.93 1.96 1.4.47-.18 1.05-.1 2.26-.18-6.64 5.42-4.7 11.44-2.06 17.5-2.64.73-5.01-.45-7.64-.22 2.43-5.94 3.96-11.64-2.03-16.63 1.29-.55 2.6-.88 3.86-1.99-3.73-.07-7.32.11-10.37-2.55 1.57-.71 3.1-1.2 4.42-2.04 1.68-1.07.95-2.77.62-4.57z" class="st10"/>
  <path d="M245.93 323.85c-4.67-1.1-8.44-3.16-12.16-5.19-7.54-4.12-12.54-10.57-15.97-18.32-.64-1.46.4-4.57 1.72-5.3 1.03-.57.97.41 1.21.82 3.09 5.15 6.42 10.1 10.36 14.67a70.8 70.8 0 0013.98 12.34c.21.13.35.38.86.98z" class="st11"/>
  <path d="M350.81 253.51c-2.88 0-5.43-.9-7.9-2.33-1.16-.67-1.2-1.03-.21-1.76 3.99-2.92 8-5.81 11.93-8.8.8-.61 1.24-.78 1.94.01 2.26 2.56 4.54 5.1 6.85 7.62.64.7.25 1.38-.29 1.44-4.33.56-7.93 3.48-12.32 3.82zM223.07 274.34c3.85 2.02 6.75 4.68 10.63 5.4.61.11 1.02.64.94 1.4-.64 6.21 2.08 11.51 4.59 16.88.06.13-.04.34-.08.58-8.4-5.92-14.21-13.49-16.08-24.26zM322.76 286.04c-.15 3.65-1.15 7.07-2.15 10.51-1.61 5.57-4.42 10.48-7.78 15.12-1.76 2.44-3.88 4.06-7.15 2.64-.91-.39-1.95-.47-3.22-1 12.13-5.2 16.47-16.01 20.3-27.27z" class="st10"/>
  <path d="M246.89 318.15c-6.5-6.52-12.6-13.36-17.29-21.35l.36-.44a72.44 72.44 0 0117.29 21.35l-.36.44z" class="st11"/>
  <path d="M283.13 150.48l-.49-.71c.43-.21.77-.15.94.35l-.45.36z" class="st10"/>
  <path d="M497.4 177.34c9.6 2.51 14.61 3.72 15.22 3.63.61-.09 1.73-1.99 3.37-5.71v-.09c1.64-3.81 2.51-6.05 2.59-6.75.09-.69-.26-1.21-1.21-1.64-1.47-.61-1.56-.61-2.94.69-.95.95-1.64 1.38-2.25 1.38l-8.39-1.82c-5.1-1.12-7.95-1.82-8.65-2.08-1.47 0 4.32-5.45 4.84-8.21.43-.95.61-7.18.69-18.68l.09-17.38-1.04-2.16a11.82 11.82 0 00-2.85-3.54c-1.21-1.21-2.16-1.82-2.94-1.82-.61.09-2.85 1.47-6.83 4.32a97.68 97.68 0 00-4.93 3.63 2.97 2.97 0 00-1.04 2.33c0 1.99.26 1.99 3.11 1.3.95 0 1.47 0 2.42.43l1.12.78v20.52c0 9.94-.17 15.82-.52 17.81-.26 1.9-1.38 3.63-3.29 5.27l-.26.26c-2.59 2.16-2.59 2.77-1.56 3.37l4.76 1.3c3.05.78 6.51 1.73 10.49 2.86z" class="st0"/>
  <linearGradient id="SVGID_9_" x1="481.1404" x2="518.5945" y1="147.0773" y2="147.0773" gradientUnits="userSpaceOnUse">
    <stop offset="0"/>
    <stop offset="1" stop-color="#171717"/>
  </linearGradient>
  <path fill="url(#SVGID_9_)" d="M486.93 174.48l-4.76-1.3c-1.04-.61-1.04-1.21 1.56-3.37l.26-.26c1.9-1.64 3.03-3.37 3.29-5.27.35-1.99.52-7.87.52-17.81v-20.49l-1.12-.78c-.95-.43-1.47-.43-2.42-.43-2.85.69-3.11.69-3.11-1.3 0-.95.35-1.73 1.04-2.33.61-.52 2.25-1.73 4.93-3.63 3.98-2.85 6.22-4.24 6.83-4.32.78 0 1.73.6 2.94 1.82a11.63 11.63 0 012.85 3.54l1.04 2.16-.09 17.38c-.09 11.5-.26 17.73-.69 18.68-.52 2.77-6.31 8.21-4.84 8.21.69.26 3.54.95 8.65 2.08l8.39 1.82c.61 0 1.3-.43 2.25-1.38 1.38-1.3 1.47-1.3 2.94-.69.95.43 1.3.95 1.21 1.64-.09.69-.95 2.94-2.59 6.75v.09c-1.64 3.72-2.77 5.62-3.37 5.71-.6.09-5.62-1.12-15.22-3.63-4-1.16-7.46-2.11-10.49-2.89z"/>
  <path d="M540.81 199.86c-.95-.35-1.3-.26-2.59.43-1.99.95-.95.95-7.61.17-4.07-.52-6.4-.69-7.18-.52-.69.17-3.03 2.16-6.92 5.97-3.89 3.72-6.75 6.66-8.39 8.82-1.64 2.16-2.68 3.98-3.03 5.45-.35 1.47-.52 10.03-.52 25.51v23.26l-2.51 2.42c-2.42 2.16-2.42 2.42-1.99 3.46.35.69.78 1.12 1.38 1.21 1.12 0 5.97-3.72 16.69-8.99 5.45-2.68 8.13-4.15 8.13-4.58 0-1.12-.86-2.85-1.47-2.85-.43 0-1.56.43-3.37 1.21a6.3 6.3 0 00-1.21.52c-1.12.43-1.9.35-2.25-.43-.34-.95-.52-5.45-.52-13.58v-12.97l7.87-.09 7.87-.17v-9.68l-7.87-.17-7.87-.09v-5.36c0-6.23.52-8.22 2.51-8.65 1.04-.35 5.02.09 13.49 1.47l1.64.26 3.37-5.19c2.25-3.37 3.37-5.27 3.37-5.71.02-.44-.33-.78-1.02-1.13z" class="st0"/>
  <linearGradient id="SVGID_10_" x1="499.8674" x2="541.8506" y1="237.85" y2="237.85" gradientUnits="userSpaceOnUse">
    <stop offset="0"/>
    <stop offset="1" stop-color="#171717"/>
  </linearGradient>
  <path fill="url(#SVGID_10_)" d="M502.08 271.37l2.51-2.42v-23.26c0-15.48.17-24.04.52-25.51.35-1.47 1.38-3.29 3.03-5.45 1.64-2.16 4.5-5.1 8.39-8.82 3.89-3.8 6.22-5.79 6.92-5.97.78-.17 3.11 0 7.18.52 6.66.78 5.62.78 7.61-.17 1.3-.69 1.64-.78 2.59-.43.69.35 1.04.69 1.04 1.12 0 .43-1.12 2.33-3.37 5.71l-3.37 5.19-1.64-.26c-8.47-1.38-12.45-1.82-13.49-1.47-1.99.43-2.51 2.42-2.51 8.65v5.36l7.87.09 7.87.17v9.68l-7.87.17-7.87.09v12.97c0 8.13.17 12.63.52 13.58.35.78 1.12.86 2.25.43a6.3 6.3 0 011.21-.52c1.82-.78 2.94-1.21 3.37-1.21.6 0 1.47 1.73 1.47 2.85 0 .43-2.68 1.9-8.13 4.58-10.72 5.27-15.56 8.99-16.69 8.99-.61-.09-1.04-.52-1.38-1.21-.46-1.03-.46-1.29 1.97-3.45z"/>
  <path d="M523.9 352.66c-.61-.35-1.04-.17-2.33 1.3-1.47 1.65-1.56 1.74-4.24 1.39-4.15-.35-9.86-2.61-11.5-4.26-1.04-.96-1.73-2.44-2.07-4.26-.35-1.83-.61-5.39-.86-10.69-.35-11.3.86-21.82 2.77-23.38.61-.61 1.82-.43 7.09.35 4.58.7 6.66.87 7 .52.43-.35 1.47-2.17 2.94-5.56 1.47-3.39 2.16-5.3 1.99-5.56-.34-.52-2.25-.69-2.77.09-.34.35-2.59.35-6.74-.09l-6.31-.61-6.66 7.04-3.81 3.91a33.9 33.9 0 00-2.68 3.22l-2.07 2.61c-.26.35-.69 1.22-1.3 2.7a19.18 19.18 0 00-.86 2.78c0 .43-.09 1.65-.26 3.56a54.09 54.09 0 00-.26 4.43v5.82c0 6 .09 9.82.17 11.47.09 1.56.43 3.04.86 4.52 1.12 3.74 2.94 6.35 5.36 8 2.51 1.65 7.18 3.22 14.01 4.69l1.3.26c2.68.61 4.32.87 4.76.96.52.09.95-.09 1.3-.52.09-.09.09-.09.09-.17.6-.61 1.82-2.87 3.54-6.61 1.73-3.83 2.59-6 2.51-6.43a2.24 2.24 0 00-.97-1.48z" class="st0"/>
  <linearGradient id="SVGID_11_" x1="490.9554" x2="524.8574" y1="334.8997" y2="334.8997" gradientUnits="userSpaceOnUse">
    <stop offset="0"/>
    <stop offset="1" stop-color="#171717"/>
  </linearGradient>
  <path fill="url(#SVGID_11_)" d="M511.36 366.66c-6.83-1.48-11.5-3.04-14.01-4.69-2.42-1.65-4.24-4.26-5.36-8a19.63 19.63 0 01-.86-4.52c-.09-1.65-.17-5.48-.17-11.47v-5.82c0-1.04.09-2.52.26-4.43.17-1.91.26-3.13.26-3.56.09-.44.35-1.39.86-2.78a15.69 15.69 0 011.3-2.7l2.07-2.61a33.9 33.9 0 012.68-3.22l3.81-3.91 6.66-7.04 6.31.61c4.15.44 6.4.44 6.74.09.52-.78 2.42-.61 2.77-.09.17.26-.52 2.17-1.99 5.56-1.47 3.39-2.51 5.22-2.94 5.56-.35.35-2.42.17-7-.52-5.27-.78-6.49-.96-7.09-.35-1.9 1.57-3.11 12.08-2.77 23.38.26 5.3.52 8.87.86 10.69.35 1.82 1.04 3.3 2.07 4.26 1.64 1.65 7.35 3.91 11.5 4.26 2.68.35 2.77.26 4.24-1.39 1.3-1.48 1.73-1.65 2.33-1.3.52.35.86.87.95 1.48.09.43-.78 2.61-2.51 6.43-1.73 3.74-2.94 6-3.54 6.61 0 .09 0 .09-.09.17-.35.44-.78.61-1.3.52-.43-.09-2.08-.35-4.76-.96l-1.28-.26z"/>
  <g>
    <linearGradient id="SVGID_12_" x1="187.7633" x2="187.7633" y1="405.2587" y2="348.0794" gradientTransform="rotate(-5.65 1151.16 1047.91)" gradientUnits="userSpaceOnUse">
      <stop offset="0"/>
      <stop offset="1" stop-color="#171717"/>
    </linearGradient>
    <path fill="url(#SVGID_12_)" d="M107.97 500.2c-4.95-4.93-8.03-8.77-9.25-11.51-1.15-2.69-1.27-5.86-.2-9.59.43-1.47.94-2.9 1.71-4.25.82-1.43 2.8-4.67 6.03-9.69l3.14-4.87c.56-.87 1.43-2.06 2.61-3.57a57.01 57.01 0 002.14-2.84 20.1 20.1 0 014.76-3.41l3.15-1.06a33.51 33.51 0 013.99-1.24l5.3-1.21 9.39-2.28 4.98 3.93c3.25 2.61 5.15 3.83 5.62 3.73.86-.38 2.36.8 2.37 1.42.01.31-1.61 1.54-4.67 3.58-3.06 2.04-4.92 3.01-5.47 3.06-.48.1-2.13-1.17-5.61-4.23-4.01-3.51-4.94-4.31-5.77-4.13-2.44.28-9.13 8.42-14.92 18.06-2.64 4.58-4.34 7.7-5.03 9.41-.69 1.71-.91 3.33-.55 4.69.49 2.27 4.07 7.25 7.37 9.79 2.07 1.74 2.19 1.72 4.31 1.13 1.89-.53 2.34-.44 2.66.18a2.1 2.1 0 010 1.75c-.16.41-2.06 1.76-5.57 4.02-3.47 2.19-5.7 3.42-6.54 3.6-.05.07-.05.07-.17.1-.52.18-.98.09-1.37-.27-.32-.31-1.56-1.41-3.49-3.37l-.92-.93z"/>
    <linearGradient id="SVGID_13_" x1="213.676" x2="213.676" y1="429.0247" y2="375.8487" gradientTransform="rotate(-5.65 1151.16 1047.91)" gradientUnits="userSpaceOnUse">
      <stop offset="0"/>
      <stop offset="1" stop-color="#171717"/>
    </linearGradient>
    <path fill="url(#SVGID_13_)" d="M129.94 509.38c.04-1.94.97-5.12 2.83-9.68s3.13-7.22 3.96-8.1c1.91-2.39 5.69-3.19 17.02-4.17l10.44-.88.98-2.4c1.28-3.12 1.32-5.53.01-6.44-1.56-1.2-3.44-1.4-10.02-1.29-3.84.02-6.14-.07-6.79-.06-.66.01-1.06-.15-1.23-.41-.19-.45.07-1.09.14-2.18.48-1.39.72-1.76 2.21-1.99 2.36-.53 11.82-.59 15.96-.21 5.74.57 9.57 1.94 11.47 3.93.08.03.16.07.2.18 1.31 1.38 1.81 2.89 1.37 4.67-.45 1.78-2.51 7.29-6.22 16.61l-.55 1.36c-4.79 11.96-7.25 18.24-7.36 18.95-.22 1.22.98 1.71 3.49 1.52 2.51-.19 3.39.17 3.02 1.98.06 1.24-.51 1.48-2.02 1.98-1.43.54-4.04.97-7.7 1.25-3.58.31-5.91.3-7.02.03-1.7-.42-2.03-.74-2.71-2.04-.73-1.42-.65-1.85.14-4.24.57-1.63.87-2.82.79-2.85-.08-.03-2.38.34-4.94.88-8.14 1.63-12.23 1.36-14.94-1.15-1.71-1.55-2.58-3.31-2.53-5.25zm24.74.47l3.66-8.97c2.78-6.81 3.47-8.95 3.14-9.08-.56-.23-2.76-.1-6.41.38-3.65.47-5.67.86-6.3 1.26-.63.4-1.21.91-1.65 1.76-.41.77-1.19 2.69-2.43 5.73-4.05 9.93-3.59 10.86 5.04 9.62l4.95-.7z"/>
    <linearGradient id="SVGID_14_" x1="275.8099" x2="275.8099" y1="455.6739" y2="392.8257" gradientTransform="rotate(-5.65 1151.16 1047.91)" gradientUnits="userSpaceOnUse">
      <stop offset="0"/>
      <stop offset="1" stop-color="#171717"/>
    </linearGradient>
    <path fill="url(#SVGID_14_)" d="M189.3 508.55c1.63-10.33 2.31-16.09 2.05-17.26-.14-.81-.79-1.17-1.85-1.06-.1.07-.27.05-.45.11l-.71.07c-2.78.46-3.46-.26-3.15-2.31.19-1.28.49-1.5 2.21-1.94 2.9-.7 6.13-1.27 9.81-1.86 3.67-.59 5.73-.89 6.14-.74 1.11.17 1.07.42.74 3.87l-.45 3.6 6.6-2.07c5.13-1.59 8.77-2.54 10.91-2.83 2.14-.29 3.75.03 4.94.91 1.35.9 1.81 2.54 1.85 5.17l-.02 1.92 6.14-1.88c5.04-1.52 8.57-2.39 10.7-2.6 2.14-.29 3.84.05 5.11.94 1.02.76 1.6 1.55 1.72 2.53.27 1.7-.43 8.15-2.04 19.54l-.32 2.14c-.07.51-.19 1.28-.26 2.32-1.52 10.79-2.23 16.71-1.96 17.8.17.64.74.9 1.74.61l.28-.13c.1-.07.27-.05.35-.03 2.56-.76 3.48-.44 3.14 1.78l-.26 1.71-5.48 2.16c-5.2 2.02-5.46 2.07-8.31 1.82-3.52-.44-4.4-1.01-4.41-3.81-.07-1.32.82-8.44 2.75-21.36 1.4-9.41 2.16-15.06 2.34-16.87.19-1.89.19-3.03-.18-3.52-.51-.69-.98-1.02-1.24-1.06-.43-.06-2.81.63-5.63 1.43l-5.13 1.59-2.44 16.33c-1.57 10.52-2.2 15.93-1.9 16.24l.24.12c3.83-.48 5.16-.63 5.38-.33.15.2.23.82.25 1.87l-.05 1.48-5.28 1.4-8.32 1.9c-2.97.61-4.68.88-5.11.81-.08-.01.15-2.16.69-6.36.55-4.29 1.32-9.42 2.21-15.41 2.11-14.11 3.19-21.99 2.94-22.64-.56-1.48-3.19-1.44-8.07.19l-4.71 1.66-2.44 16.33c-.68 4.53-1.25 8.38-1.65 11.64-.39 3.18-.54 4.81-.46 4.83.26.03 1.07-.11 2.51-.42 2.87-.53 4.03-.1 4.13 1.58.11.98-.05 1.48-.45 1.86-.29.22-3.35.81-9.1 1.79-5.65.99-8.79 1.48-9.39 1.4-.25-.04-.32-1.36-.02-3.94s1.2-8.65 2.64-18.31l.73-4.71z"/>
    <linearGradient id="SVGID_15_" x1="332.5785" x2="332.5785" y1="458.9529" y2="405.5725" gradientTransform="rotate(-5.65 1151.16 1047.91)" gradientUnits="userSpaceOnUse">
      <stop offset="0"/>
      <stop offset="1" stop-color="#171717"/>
    </linearGradient>
    <path fill="url(#SVGID_15_)" d="M262.34 536.52a18.36 18.36 0 01-.99-4.72c-.17-1.81-.36-6.13-.67-12.78l-.34-7.43c-.14-3.2-.16-7.44.04-8.57.06-.61.29-1.31.6-2.11.61-1.76 1.03-2.04 2.36-3.39 3.96-4.33 9.86-7.72 14.75-8.63 3.86-.7 6.17.58 8.44 4.81a11.82 11.82 0 002.56 3.09c.89.56 1.35 1.06 1.12 1.85-.06.52-.55 1.15-1.64 1.89l-7.58 4.5-9.2 5.26.47 10.36c.24 5.35.48 8.81.73 10.27a7.51 7.51 0 001.71 3.47c2.26 2.15 5.68 1.3 10.44-2.55 3.26-2.66 4.45-2.97 5.56-1.38 1.11 1.68.38 2.58-6.83 7.75-6.03 4.43-10.56 5.58-15.47 4.34-2.87-.72-4.87-2.7-6.06-6.03zm12.29-32.57c1.43-.84 2.78-1.77 2.85-2.12.07-.43-.15-1.38-.74-2.91a8.7 8.7 0 00-1.53-3.13c-.99-.91-2.64-.92-3.36.41-.57.8-.6 2.02-.46 5.13.12 2.68.27 4.06.44 4.05l2.8-1.43z"/>
    <linearGradient id="SVGID_16_" x1="362.0951" x2="362.0951" y1="459.3474" y2="394.4997" gradientTransform="rotate(-5.65 1151.16 1047.91)" gradientUnits="userSpaceOnUse">
      <stop offset="0"/>
      <stop offset="1" stop-color="#171717"/>
    </linearGradient>
    <path fill="url(#SVGID_16_)" d="M303.72 537.76c-.52-.62-.77-1.12-1.44-5.3l-1.24-7.68c-.52-3.07-1.17-7.78-2.15-14.19-2.86-20.55-3.99-26.16-4.48-26.53-.39-.29-1.64-.47-2.95-.46-2.15.21-2.24.22-2.67-1.03-.1-.69-.12-1.47.1-1.76.29-.39 2.86-1.45 7.75-3.26 6.5-2.21 7.47-2.79 8.09-2.09.29.22.8 1.98 1.34 5.23.54 3.24 1.75 10.67 3.46 22.31 2.6 18.06 4.16 27.36 4.49 27.83.35.65.79.68 1.78.28.92-.3 1.85-.52 2.86-.75 1.36-.28 1.47-.12 1.87.87.2.85.12 1.47-.16 1.95-.37.49-2.04 1.68-5.19 3.51-3.16 1.75-5.19 2.82-6.3 3.06-1.34.36-2.4.33-3.15-.09a7.51 7.51 0 01-2.01-1.9z"/>
    <linearGradient id="SVGID_17_" x1="394.3927" x2="394.3927" y1="456.9812" y2="401.7145" gradientTransform="rotate(-5.65 1151.16 1047.91)" gradientUnits="userSpaceOnUse">
      <stop offset="0"/>
      <stop offset="1" stop-color="#171717"/>
    </linearGradient>
    <path fill="url(#SVGID_17_)" d="M324.18 527.23c-.69-1.08-2.05-5.74-4.11-13.87a210.2 210.2 0 01-2.43-10.44c-.31-1.7-.43-3.01-.27-3.84.65-5.21 4.14-9.66 12.38-15.84l5.22-3.88 3.21.85c4.62 1.15 9.31 3.78 11.14 5.93l1.6 1.94 3.07 13.22 3.06 13.14-.71 2.65a18.22 18.22 0 01-3.07 5.86 49.77 49.77 0 01-7.07 6.62c-3.97 3.14-6.08 4.78-6.33 4.84-.34.08-1.82-.2-4.47-.91-4.87-1.09-9.67-3.8-11.22-6.27zm21.59-9.46a248.6 248.6 0 00-2.15-9.62l-.12-.5c-1.8-7.75-3.11-12.24-3.83-13.4-.55-.85-1.65-1.75-3.35-2.59l-.12-.15c-3.22-1.65-6.3-2.26-7.17-1.44a3.3 3.3 0 00-1 2.19c-.05 1.7.51 4.85 2.68 14.2l.25 1.09c.49 2.1.84 3.62.97 4.57.21.93.47 2.02.87 3.35.88 2.63.83 2.83 1.63 4.33.96 1.46 1.03 1.36 2.29 2.22 1.33.76 1.79.83 3.73 1.53l.5.24c3.19 1.12 4.12.91 5.07-1.09.33-.9.23-2.47-.25-4.93z"/>
    <linearGradient id="SVGID_18_" x1="427.5542" x2="427.5542" y1="451.1172" y2="386.622" gradientTransform="rotate(-5.65 1151.16 1047.91)" gradientUnits="userSpaceOnUse">
      <stop offset="0"/>
      <stop offset="1" stop-color="#171717"/>
    </linearGradient>
    <path fill="url(#SVGID_18_)" d="M373.97 524.97c-1.42-.17-2.45-1.11-3.26-2.76-.81-1.65-2.87-7.43-6.19-17.35l-.37-1.15c-4.41-13.02-6.96-19.74-7.73-20.13a2.93 2.93 0 00-2.35-.23c-1.64.53-3.12.19-3.44-.79-.19-.58.67-2.4 2.66-5.5 1.49-2.39 3.96-7.11 5.3-10 1.67-3.54 2.72-5.34 3.21-5.5.66-.21.9.26 2.58 5.43l1.87 5.76 4.28-1.39 4.36-1.42.29 1.73c.1 1.15.31 2.08.55 2.82l.38 1.15-4.03 1.31-4.03 1.31 5.85 18.01c2.68 8.22 3.99 11.98 4.92 14.86 1.02 2.85 1.37 3.37 1.78 3.51.71.22 1.18-.02 3.08-2 2.45-2.52 3.41-2.65 4.38-1.06.57.91.54 1.37-.43 2.87-.75 1.33-2.4 3.23-4.91 5.6-2.51 2.36-4.29 3.85-5.31 4.36-1.21.48-2.3.75-3.34.63l-.1-.07z"/>
  </g>
</svg>